# xmcd
# 
# Track frame offsets:
#     150
#     12350
#     26260
#     39833
#     55860
#     83221
# 
# Disc length: 1364
# 
# Revision: 2
# Processed by: cddbd v1.5.2PL0 Copyright (c) Steve Scherf et al.
# Submitted via: fre:ac v1.0.31
# 
DISCID=38055206
DTITLE=Honeydrippers, The - The Honeydrippers Volume One
DYEAR=1984
DGENRE=Rock/Pop
TTITLE0=I Get A Thrill
TTITLE1=Sea Of Love
TTITLE2=I Got A Woman
TTITLE3=Young Boy Blues
TTITLE4=Rockin' At Midnight
TTITLE5=Rockin' At Midnight (Live) Bonus Track
EXTD=
EXTT0=
EXTT1=
EXTT2=
EXTT3=
EXTT4=
EXTT5=
PLAYORDER=
